<?xml version="1.0" standalone="no"?>
<!DOCTYPE svg PUBLIC "-//W3C//DTD SVG 20010904//EN"
 "http://www.w3.org/TR/2001/REC-SVG-20010904/DTD/svg10.dtd">
<svg version="1.0" xmlns="http://www.w3.org/2000/svg"
 width="332.000000pt" height="174.000000pt" viewBox="0 0 332.000000 174.000000"
 preserveAspectRatio="xMidYMid meet">

<g transform="translate(0.000000,174.000000) scale(0.100000,-0.100000)"
fill="#000000" stroke="none">
<path d="M815 1651 l-80 -48 -3 -105 -3 -105 92 -54 91 -54 0 -103 c1 -56 -1
-104 -3 -106 -19 -17 -167 -96 -179 -96 -8 0 -49 20 -90 45 -41 25 -81 45 -89
45 -8 0 -52 -21 -98 -47 l-83 -47 0 -100 c0 -56 -4 -106 -8 -112 -4 -6 -38
-28 -77 -49 -109 -59 -105 -53 -105 -169 l0 -101 -90 -50 -90 -50 0 -106 0
-107 90 -51 c49 -28 92 -51 94 -51 3 0 45 23 95 52 l90 51 3 106 3 105 87 50
88 51 0 106 0 107 90 52 90 52 58 -33 c89 -50 132 -79 131 -87 -1 -4 -1 -51 0
-104 l1 -96 88 -49 87 -48 5 -108 5 -108 85 -50 c47 -27 89 -49 95 -48 5 0 48
24 94 52 l84 52 -1 96 c0 52 3 100 6 105 10 14 166 104 181 104 11 0 36 -14
159 -87 21 -13 22 -20 22 -117 l0 -104 90 -51 c49 -28 92 -51 94 -51 2 0 44
23 94 51 l91 50 3 107 3 106 87 50 87 51 3 105 3 104 88 52 88 52 92 -53 92
-53 3 -104 3 -105 87 -50 87 -49 3 -107 3 -106 88 -50 c49 -28 91 -51 94 -51
3 0 47 23 97 52 l91 52 -3 105 -3 104 -90 52 -90 52 -3 106 -3 106 -89 52 -90
51 0 103 0 103 -89 51 c-49 28 -92 51 -96 51 -4 0 -47 -23 -95 -51 l-88 -50
-91 51 -91 52 0 108 0 107 88 50 87 50 2 109 3 109 -84 48 c-46 26 -90 47 -97
47 -7 0 -50 -21 -96 -47 l-83 -48 0 -100 c0 -55 -4 -105 -8 -110 -4 -6 -45
-33 -92 -59 l-85 -48 -45 24 c-25 14 -66 37 -92 52 l-48 28 -47 -28 c-27 -15
-68 -38 -93 -52 l-46 -25 -89 53 -90 53 -30 -18 c-16 -10 -58 -33 -93 -52
l-62 -35 -88 50 -87 49 -5 109 -5 108 -83 48 c-46 26 -91 48 -100 48 -10 -1
-53 -22 -97 -49z m559 -628 l85 -48 1 -107 0 -107 -86 -51 c-53 -31 -93 -49
-103 -45 -9 3 -51 27 -94 52 l-78 46 3 105 3 105 80 48 c44 27 86 48 92 49 7
0 51 -21 97 -47z m730 0 c45 -26 84 -52 88 -58 4 -5 8 -50 8 -100 0 -49 -4
-95 -8 -101 -7 -10 -169 -104 -179 -104 -3 0 -46 23 -95 51 l-89 52 3 105 3
105 85 48 c47 27 89 49 94 49 5 0 46 -21 90 -47z"/>
</g>
</svg>
